[img]http://img855.imageshack.us/img855/605/thecountofmontecristo32.jpg[/img]
 
http://www.imdb.com/title/tt0245844/
 
http://www.moviemeter.nl/film/886

Subs: Dutch, English.

Source: The.Count.of.Monte.Cristo.2002.720p.BluRay.X264-AMIABLE


General
Complete name                    : The Count of Monte Cristo-AC3-XviD-BRRip 2002\The Count of Monte Cristo-AC3-XviD-BRRip 2002.avi
Format                           : AVI
Format/Info                      : Audio Video Interleave
File size                        : 1.75 GiB
Duration                         : 2h 11mn
Overall bit rate                 : 1 904 Kbps
Writing application              : VirtualDubMod 1.5.4.1 (build 2178/release)
Writing library                  : VirtualDubMod build 2178/release

Video
ID                               : 0
Format                           : MPEG-4 Visual
Format profile                   : Simple@L3
Format settings, BVOP            : No
Format settings, QPel            : No
Format settings, GMC             : No warppoints
Format settings, Matrix          : Default (H.263)
Codec ID                         : XVID
Codec ID/Hint                    : XviD
Duration                         : 2h 11mn
Bit rate                         : 1 446 Kbps
Width                            : 720 pixels
Height                           : 400 pixels
Display aspect ratio             : 16:9
Frame rate                       : 23.976 fps
Resolution                       : 8 bits
Colorimetry                      : 4:2:0
Scan type                        : Progressive
Bits/(Pixel*Frame)               : 0.209
Stream size                      : 1.33 GiB (76%)
Writing library                  : XviD 1.1.2 (UTC 2006-11-01)

Audio
ID                               : 1
Format                           : AC-3
Format/Info                      : Audio Coding 3
Codec ID                         : 2000
Duration                         : 2h 11mn
Bit rate mode                    : Constant
Bit rate                         : 448 Kbps
Channel(s)                       : 6 channels
Channel positions                : Front: L C R, Surround: L R, LFE
Sampling rate                    : 48.0 KHz
Stream size                      : 421 MiB (24%)
Alignment                        : Split accross interleaves
Interleave, duration             : 42 ms (1.00 video frame)
Interleave, preload duration     : 500 ms

Enjoy..

[img]http://img8.imageshack.us/img8/6923/thecountofmontecristoac.jpg[/img]